<svg xmlns="http://www.w3.org/2000/svg" xmlns:xlink="http://www.w3.org/1999/xlink" width="87" height="78" viewBox="0 0 87 78">
  <defs>
    <clipPath id="clip-Plan_de_travail_16">
      <rect width="87" height="78"/>
    </clipPath>
  </defs>
  <g id="Plan_de_travail_16" data-name="Plan de travail – 16" clip-path="url(#clip-Plan_de_travail_16)">
    <rect width="87" height="78" fill="transparent"/>
    <g id="Groupe_253" data-name="Groupe 253" transform="translate(-4355.633 -155.914)">
      <path id="Tracé_203" data-name="Tracé 203" d="M4384.984,191.366q2.625,4.083,5.249,8.164,1.162,1.809,2.333,3.611c.071.108.09.286.283.278l.065,0c.869-.282,1.678-.706,2.513-1.07,1.449-.633,2.9-1.27,4.329-1.942a1.361,1.361,0,0,1,1.182-.015c4.391,1.8,8.795,3.574,13.194,5.355.079.032.158.066.24.09a.424.424,0,0,0,.326.005.236.236,0,0,0,.062-.114.927.927,0,0,0-.165-.52q-2.717-5.442-5.44-10.882c-.1-.205-.25-.379-.358-.58-.189-.2.014-.34.1-.478q3.255-5.205,6.519-10.406a2.432,2.432,0,0,0,.373-.662,16.8,16.8,0,0,0-.685-2.506c-1.178-4.017-2.4-8.02-3.585-12.035a.178.178,0,0,0-.161-.114l-.008.024a1.215,1.215,0,0,0-.218.632q-.415,3.907-.813,7.815-.406,3.949-.814,7.9-.354,3.483-.725,6.966c-.087.82-.161,1.643-.271,2.46.025.262-.187.365-.35.489-1.4,1.069-2.787,2.162-4.188,3.232-1.085.829-2.157,1.675-3.247,2.5-.144.109-.274.259-.486.224-1.16-.614-2.256-1.335-3.387-2-3.049-1.784-6.056-3.639-9.1-5.437a1.752,1.752,0,0,1-.229-.181.428.428,0,0,0-.153-.09.6.6,0,0,0-.12-.019,17.087,17.087,0,0,1-1.63-.585C4385.421,191.4,4385.222,191.249,4384.984,191.366Z" fill="#1c7b7f"/>
      <path id="Tracé_204" data-name="Tracé 204" d="M4408.53,193.5c.321-.4.174-.9.244-1.352.157-1,.239-2.023.342-3.037.1-.958.175-1.919.275-2.877.127-1.224.271-2.448.4-3.672.1-.93.185-1.86.282-2.79.1-1.014.217-2.027.322-3.04.1-.916.181-1.833.277-2.749.1-1,.219-2,.324-3,.095-.915.191-1.831.268-2.749a3.8,3.8,0,0,1,.086-.673c-.874.989-1.755,1.972-2.621,2.969q-5.243,6.027-10.478,12.058a1.234,1.234,0,0,1-.4.381,13.192,13.192,0,0,0-1.39,1.542c-.529.591-1.066,1.179-1.548,1.812l-.023.058a.19.19,0,0,0,.032.12.513.513,0,0,0,.1.071c1.475.742,2.933,1.516,4.39,2.291.679.361,1.362.713,2.043,1.066,2.174,1.126,4.325,2.3,6.511,3.4C4408.148,193.418,4408.31,193.56,4408.53,193.5Z" fill="#08ab67"/>
      <path id="Tracé_205" data-name="Tracé 205" d="M4411.359,167.542l.082.1a4.841,4.841,0,0,0,1.176,1.091c1.645,1.371,3.281,2.753,4.938,4.11.114.093.2.254.391.2,6.426-4.783,12.847-9.572,19.255-14.44a1.27,1.27,0,0,0-.765.169q-12.524,4.365-25.042,8.745A.206.206,0,0,0,4411.359,167.542Z" fill="#c0fd00"/>
      <path id="Tracé_206" data-name="Tracé 206" d="M4394.927,186.389a17.959,17.959,0,0,0,1.309-1.451c.515-.566,1-1.159,1.5-1.744a1.254,1.254,0,0,0,.122-.22q-.344-2.8-.687-5.6a16.106,16.106,0,0,0-.252-1.839c-1.337-1.974-2.808-3.85-4.226-5.765-.245-.331-.467-.678-.73-1-.093-.113-.151-.287-.352-.259q-1.2,5.488-2.406,10.977a2.212,2.212,0,0,0-.028.255c-.106.176.007.3.111.413q1.068,1.187,2.119,2.386c.988,1.133,2.009,2.237,2.984,3.382A1.166,1.166,0,0,0,4394.927,186.389Z" fill="#00fe3f"/>
      <path id="Tracé_207" data-name="Tracé 207" d="M4420.164,231.6a.118.118,0,0,0,.007.042.68.68,0,0,0,.042.059c.081-.117.038-.249.038-.373,0-4.646.028-9.294-.02-13.94-.037-3.634,0-7.268-.031-10.9a.85.85,0,0,0-.057-.5.8.8,0,0,0-.443-.129c-1.5-.023-3-.142-4.5-.084-.482.085-.517.127-.409.664.388,1.913.8,3.822,1.2,5.733q1.126,5.333,2.247,10.667.787,3.744,1.571,7.489C4419.9,230.754,4420.051,231.168,4420.164,231.6Z" fill="#265793"/>
      <path id="Tracé_208" data-name="Tracé 208" d="M4420.164,231.6c-.1-.917-.347-1.805-.532-2.705-.55-2.675-1.121-5.347-1.684-8.02q-.744-3.531-1.487-7.064-.793-3.761-1.586-7.521c-.039-.188-.12-.45.252-.4-.087-.22-.254-.205-.434-.149,0,.024,0,.048,0,.072-1.1.965-2.163,1.965-3.23,2.965a.582.582,0,0,0-.192.223c.5,1.031.867,2.12,1.284,3.186q3.746,9.578,7.475,19.16A2.3,2.3,0,0,0,4420.164,231.6Z" fill="#1c7b7f"/>
      <path id="Tracé_209" data-name="Tracé 209" d="M4411.267,208.994a7.677,7.677,0,0,0,1.283-1.1c.69-.565,1.325-1.2,1.984-1.8a.345.345,0,0,0,.155-.287l-.26-.072c-.849-.156-1.707-.245-2.565-.342-2.973-.337-5.948-.658-8.92-1-2.888-.334-5.779-.633-8.665-.979a2.556,2.556,0,0,0-1.391,0l-.039.008c1.564.483,3.126.975,4.692,1.45q6.737,2.043,13.477,4.076C4411.1,208.969,4411.184,208.978,4411.267,208.994Z" fill="#08ab67"/>
      <path id="Tracé_210" data-name="Tracé 210" d="M4417.946,173.043q-3.252-2.7-6.5-5.4a12.771,12.771,0,0,0,.576,2.088q1.8,6.108,3.633,12.207a1.463,1.463,0,0,0,.14.261q1.035-4.392,2.069-8.783C4417.889,173.29,4417.917,173.166,4417.946,173.043Z" fill="#265793"/>
      <path id="Tracé_211" data-name="Tracé 211" d="M4414.693,205.734c.111.147.3.07.434.149l5.016.1c-.933-1.015-1.864-2.034-2.8-3.046q-4.132-4.467-8.269-8.929c-.087-.093-.184-.175-.277-.263a10.345,10.345,0,0,0,.733,1.575q2.453,4.941,4.926,9.872C4414.544,205.367,4414.614,205.552,4414.693,205.734Z" fill="#c0fd00"/>
      <path id="Tracé_212" data-name="Tracé 212" d="M4374.635,187.389a5.182,5.182,0,0,0-1.337,1.029q-6.325,5.343-12.632,10.707c-.076.064-.147.133-.22.2-.012.072,0,.122.087.076q2.937-1.964,5.876-3.928,5.02-3.369,10.038-6.745a.256.256,0,0,0-.118-.213c-.494-.345-.96-.728-1.458-1.068A.268.268,0,0,0,4374.635,187.389Z" fill="#00fe3f"/>
      <path id="Tracé_213" data-name="Tracé 213" d="M4391.608,168.514q2.04,2.725,4.084,5.45a12.718,12.718,0,0,0,1.224,1.57q-1.3-3.39-2.6-6.778-1.746-4.536-3.5-9.066a.553.553,0,0,0-.192-.276Q4391.117,163.965,4391.608,168.514Z" fill="#265793"/>
      <path id="Tracé_214" data-name="Tracé 214" d="M4394.927,186.389c-.907-1.034-1.81-2.072-2.722-3.1q-1.438-1.626-2.89-3.24a.513.513,0,0,1-.141-.3c-.441-.257-.667-.725-1.033-1.055-.113-.1-.164-.27-.329-.32a3.469,3.469,0,0,0-1.16.605c-.517.3-1.014.625-1.525.932a.7.7,0,0,0-.332.319l0,.063.021.06a27.63,27.63,0,0,0,2.53,1.588c2.3,1.426,4.632,2.808,6.939,4.226.19.117.36.352.644.227Z" fill="#08ab67"/>
      <path id="Tracé_215" data-name="Tracé 215" d="M4374.635,187.389l1.812,1.339,1.694-.028a3.867,3.867,0,0,0,1.191.011,3.127,3.127,0,0,1,.51-.046c1.226.046,2.446-.137,3.672-.092a1.521,1.521,0,0,0,.709-.124c.272-.249-.043-.281-.149-.33-.467-.212-.956-.371-1.436-.553-2.065-.784-4.127-1.575-6.2-2.344a1.378,1.378,0,0,0-.285-.089.311.311,0,0,0-.128.018,14.282,14.282,0,0,0-1.384,2.083C4374.519,187.279,4374.6,187.335,4374.635,187.389Z" fill="#c0fd00"/>
      <path id="Tracé_216" data-name="Tracé 216" d="M4384.355,188.368c-1.559.063-3.119.106-4.675.2a5.245,5.245,0,0,0-1.539.132,9.668,9.668,0,0,0,1.9.789c1.643.639,3.295,1.253,4.944,1.877.62.231,1.239.466,1.862.689.149.054.29.188.471.092.077-.147-.029-.249-.1-.343-.843-1.093-1.659-2.206-2.5-3.3a.575.575,0,0,0-.193-.165A.138.138,0,0,0,4384.355,188.368Z" fill="#265793"/>
      <path id="Tracé_217" data-name="Tracé 217" d="M4376.043,185.2h.036l.033-.014a.653.653,0,0,0,.305-.287q2.413-3.363,4.849-6.71a.142.142,0,0,0-.023-.116,12.489,12.489,0,0,0-1.739,1.248c-1.3.959-2.59,1.942-3.881,2.919a3.947,3.947,0,0,0-.309.282,12.91,12.91,0,0,0,.6,2.52A.226.226,0,0,0,4376.043,185.2Z" fill="#08ab67"/>
      <path id="Tracé_218" data-name="Tracé 218" d="M4381.243,178.077a.311.311,0,0,1,0,.074c.052.167.2.231.334.311q1.387.834,2.778,1.665c.141.084.277.214.467.124l2.987-1.881c-1.152-.154-2.315-.111-3.473-.185C4383.309,178.118,4382.275,178.111,4381.243,178.077Z" fill="#265793"/>
      <path id="Tracé_219" data-name="Tracé 219" d="M4376.043,185.2c-.223-.9-.438-1.8-.729-2.677-.257,1.565-.55,3.125-.671,4.709A20.174,20.174,0,0,0,4376.043,185.2Z" fill="#265793"/>
      <path id="Tracé_220" data-name="Tracé 220" d="M4360.533,199.4l-.087-.076a.916.916,0,0,0-.37.326A.742.742,0,0,0,4360.533,199.4Z" fill="#28fe5d"/>
      <path id="Tracé_221" data-name="Tracé 221" d="M4408.53,193.5q-4.387-2.286-8.774-4.575c-1.449-.757-2.892-1.524-4.339-2.284a.97.97,0,0,0-.432-.171c-.1.175-.009.331.052.486.921,2.338,1.83,4.68,2.767,7.011.692,1.8,1.438,3.585,2.121,5.392a1.6,1.6,0,0,0,.316.55c.282.1.4-.165.561-.286q3.7-2.821,7.372-5.675C4408.313,193.842,4408.583,193.784,4408.53,193.5Z" fill="#265793"/>
      <path id="Tracé_222" data-name="Tracé 222" d="M4394.926,186.39c-.889-.528-1.78-1.051-2.666-1.585q-3.716-2.241-7.432-4.489c-.131.135-.08.288-.047.442q1.187,5.432,2.4,10.858a3.39,3.39,0,0,0,.223.553.056.056,0,0,0,.038.042c.234.076.375-.1.525-.214q2.934-2.278,5.856-4.572c.28-.22.577-.417.84-.658.1-.093.251-.15.257-.32C4394.919,186.428,4394.923,186.409,4394.926,186.39Z" fill="#00fe3f"/>
      <path id="Tracé_223" data-name="Tracé 223" d="M4392.888,203.411l3.715.408c.873.1,1.746.187,2.618.285,1.154.131,2.306.269,3.459.4,1.112.126,2.224.245,3.336.37,1.434.163,2.868.333,4.3.493,1.14.127,2.28.258,3.423.351.223.019.457.214.688.017q-4.351-1.753-8.7-3.508-2.531-1.021-5.057-2.053a.667.667,0,0,0-.571-.031q-3.522,1.576-7.051,3.143A.888.888,0,0,0,4392.888,203.411Z" fill="#00fe3f"/>
      <path id="Tracé_224" data-name="Tracé 224" d="M4394.915,186.447q-3.508,2.736-7.019,5.47a1.107,1.107,0,0,1-.459.294l.216.168a18.9,18.9,0,0,0,3.265.606c2.108.347,4.219.671,6.331.993.219.034.449.124.649-.064q-1.383-3.5-2.764-7c-.057-.144-.1-.294-.149-.441A.087.087,0,0,1,4394.915,186.447Z" fill="#c0fd00"/>
      <path id="Tracé_225" data-name="Tracé 225" d="M4397.9,193.914c-.892-.059-1.765-.248-2.646-.381-2.295-.349-4.589-.713-6.884-1.069-.237-.036-.476-.057-.715-.085,1.483.9,2.962,1.8,4.448,2.694q3.84,2.306,7.687,4.6c.146.088.3.159.453.238q-.812-2.086-1.624-4.172C4398.38,195.13,4398.138,194.522,4397.9,193.914Z" fill="#08ab67"/>
      <path id="Tracé_226" data-name="Tracé 226" d="M4387.4,192.169c-.3-1.387-.589-2.775-.9-4.161-.55-2.494-1.11-4.986-1.663-7.479a1.4,1.4,0,0,1-.013-.213v0c-.239.046-.2.248-.212.4-.045.781-.083,1.562-.106,2.344-.044,1.549-.085,3.1-.158,4.646a1.117,1.117,0,0,0,.106.665c.989,1.231,1.933,2.5,2.86,3.774A.461.461,0,0,1,4387.4,192.169Z" fill="#c0fd00"/>
      <path id="Tracé_227" data-name="Tracé 227" d="M4384.457,188.373q.069-1.959.138-3.918t.149-3.917c0-.083-.01-.174.083-.224a.34.34,0,0,1,0-.063c-1.138-.6-2.207-1.315-3.319-1.958-.086-.05-.174-.1-.26-.142a11.86,11.86,0,0,0-1.342,1.749c-1.254,1.719-2.491,3.45-3.733,5.178a.712.712,0,0,0-.059.112q2.481.948,4.96,1.9c1.1.422,2.188.854,3.282,1.281Z" fill="#00fe3f"/>
    </g>
  </g>
</svg>